<?xml version="1.0" encoding="UTF-8" standalone="no"?>
<!DOCTYPE svg PUBLIC "-//W3C//DTD SVG 1.1//EN" "http://www.w3.org/Graphics/SVG/1.1/DTD/svg11.dtd">
<svg width="100%" height="100%" viewBox="0 0 463 463" version="1.1" xmlns="http://www.w3.org/2000/svg" xmlns:xlink="http://www.w3.org/1999/xlink" xml:space="preserve" xmlns:serif="http://www.serif.com/" style="fill-rule:evenodd;clip-rule:evenodd;stroke-linejoin:round;stroke-miterlimit:2;">
    <g transform="matrix(0.729313,0,-0,0.729313,231.435343,231.435343)">
        <g transform="matrix(1,0,0,1,-317.333333,-317.333333)">
            <clipPath id="_clip1">
                <rect x="0" y="0" width="634.667" height="634.667"/>
            </clipPath>
            <g clip-path="url(#_clip1)">
                <g transform="matrix(1.333333,0,0,1.333333,0,0)">
                    <path d="M238,0C106.77,0 0,106.77 0,238C0,369.23 106.77,476 238,476C369.23,476 476,369.23 476,238C476,106.77 369.23,0 238,0ZM439.92,141.18C444.85,151.99 441.48,161.1 432.75,165.09L432.66,165.09C423.92,169.09 414.54,165.68 409.57,154.78L404.33,143.28L434.6,129.5L439.92,141.18ZM429.8,101.79L432.46,110.22L423.46,108.04L419.78,102.84L429.8,101.79ZM417.73,103.41L422.87,110.67L403.7,141.59L398,133.52L401.45,128.11L394,117.63L387.78,119.13L382.17,111.21L417.73,103.41ZM395.51,78.09C401.51,83.99 402.33,90.88 397.15,96.09L397.09,96.16C391.58,101.75 384.38,100.45 378.49,94.65L375.24,91.44L368.57,98.21L362,91.77L385.36,68.08L395.51,78.09ZM338.76,36.24L347.76,41.69L347.33,55.61L359.51,48.82L368.33,54.17L346.77,65.29L340.24,76.06L332.31,71.25L338.77,60.6L338.76,36.24ZM290.66,29.24L290.66,29.15C292.57,23.27 298.61,20.54 306.2,23C311.58,24.75 315.32,27.56 317.85,31.44L311.46,36.2C309.509,33.454 306.772,31.362 303.61,30.2C301.49,29.51 300.15,30.07 299.79,31.2L299.79,31.29C299.32,32.74 300.2,33.72 304.26,36.14C311.02,40.14 314.78,43.91 312.86,49.83L312.86,49.92C310.76,56.39 304.4,58.57 296.71,56.07C291.24,54.444 286.556,50.857 283.56,46L290.34,41.76C292.428,45.102 295.609,47.622 299.34,48.89C301.69,49.65 303.22,49.25 303.66,47.89L303.66,47.8C304.08,46.49 303.28,45.43 299.31,43.04C293.13,39.33 288.55,35.74 290.66,29.23L290.66,29.24ZM276.72,16.24L285.81,18.04L279.33,50.67L270.24,48.87L276.72,16.24ZM236,12.33L244.58,12.85L257.17,31.24L258.24,13.69L267.35,14.25L265.35,47.45L257.27,47L244.2,27.88L243.09,46.09L234,45.53L236,12.33ZM226.6,12.73L227.48,20.53L209.96,22.53L210.53,27.53L226.4,25.73L227.22,32.96L211.35,34.76L212,40L229.76,38L230.65,45.79L203.82,48.79L200,15.76L226.6,12.73ZM192.05,17.16L194.23,25L184.62,27.67L191.35,51.94L182.47,54.41L175.73,30.13L166.12,32.8L164,25L192.05,17.16ZM143.54,33.29L147.28,40.18L131.78,48.59L134.18,53.02L148.18,45.4L151.65,51.8L137.65,59.41L140.17,64.05L155.88,55.53L159.62,62.42L135.89,75.3L120,46.05L143.54,33.29ZM97.47,62.54C106.78,55.16 116.47,56.24 122.4,63.76L122.46,63.84C128.46,71.36 127.38,81.28 117.99,88.73L108.08,96.58L87.42,70.51L97.47,62.54ZM63,97.33C65.59,94 68.21,92.33 71,92C72.992,91.745 75.004,92.32 76.56,93.59L76.63,93.65C79.63,96 80.15,99.12 79.37,102.24C82.89,99.86 86.27,99.24 89.84,101.97L89.92,102.03C94.44,105.51 94.34,111.32 89.49,117.61L79,131.17L52.61,110.85L63,97.33ZM37.1,138.33L53.49,146.89C57.74,149.11 60.88,148.01 62.6,144.73C64.32,141.45 63.5,138.28 59.37,136.13L42.8,127.5L47.13,119.2L63.48,127.74C73,132.74 74.34,140.32 69.96,148.74C65.58,157.16 58.58,160.17 49.35,155.36L32.79,146.71L37.1,138.33ZM43.64,266.38C41.208,271.719 35.857,275.161 29.99,275.161C21.761,275.161 14.99,268.39 14.99,260.161C14.99,259.228 15.077,258.297 15.25,257.38C15.36,256.87 15.57,256.38 15.77,255.76C17.45,256.76 17.7,258.24 17.82,259.76C17.99,261.91 18.01,264.08 18.33,266.2C18.614,267.376 19.02,268.518 19.54,269.61C19.54,266.73 19.42,263.75 19.54,260.79C19.66,257.83 19.38,255.21 16.85,253.21C19.44,248.053 24.941,244.981 30.69,245.48C30.132,246.939 29.737,248.455 29.51,250C29.22,254.63 31.93,257.63 35.39,260.17C37.22,261.5 38.99,262.92 40.98,264.22C40.07,263.16 39.21,262.07 38.25,261.06C36.58,259.3 34.56,257.8 33.25,255.82C32.285,254.23 31.789,252.399 31.82,250.54C31.82,247.45 34.94,245.95 37.61,247.54C44.064,251.392 46.677,259.531 43.67,266.42L43.64,266.38ZM51.19,204.57C50.004,212.851 42.836,219.065 34.471,219.065C33.471,219.065 32.474,218.976 31.49,218.8L31.4,218.8C23.05,217.571 16.798,210.332 16.798,201.892C16.798,200.855 16.892,199.82 17.08,198.8C18.15,192.09 21.66,188.22 26.16,185.96L30.37,193.66C27.72,195.16 25.88,197.08 25.37,200.22C24.64,204.82 28.02,208.68 32.81,209.45L32.9,209.45C37.83,210.23 42.19,207.61 42.9,203.01C43.45,199.58 42.17,197.31 40.09,194.96L46.09,188.88C49.91,192.65 52.38,197.33 51.22,204.61L51.19,204.57ZM22.33,176.9L25.24,168.15L49.14,176.1L54.23,160.81L61.9,163.35L53.9,187.4L22.33,176.9ZM67.4,390L92.49,364.73L99.49,371.68L80.49,390.81L92.73,403L86.64,409.14L67.4,390ZM123,435.62L114.33,429.56L115.85,422.86L104.55,415L98.82,418.75L90.32,412.81L123.32,392.1L131.12,397.55L123,435.62ZM173.85,442.15L157.85,436.09L155.85,441.37L173.73,448.15L170.73,456L143.73,445.76L156.36,412.46L183.13,422.62L180.13,430.47L162.48,423.78L160.57,428.78L176.57,434.84L173.85,442.15ZM198.33,439.54C206,442.91 210.46,446.54 209.14,453.04L209.14,453.14C207.7,460.27 201.2,463.37 192.73,461.65C186.729,460.582 181.325,457.346 177.55,452.56L184.23,447.21C186.867,450.513 190.568,452.804 194.7,453.69C197.3,454.22 198.87,453.61 199.18,452.11L199.18,452.01C199.47,450.56 198.48,449.53 193.97,447.48C186.88,444.28 181.57,441.02 183.03,433.84L183.03,433.74C184.34,427.26 190.43,423.61 198.8,425.31C204.74,426.51 209.05,429.05 212.22,432.86L206,438.71C203.596,436.026 200.432,434.136 196.93,433.29C194.58,432.81 193.24,433.58 192.98,434.82L192.98,434.92C192.62,436.52 193.68,437.46 198.29,439.54L198.33,439.54ZM233.85,438.54L232.66,465.47L222.8,465.04L224,438.12L213.33,437.65L213.71,429.02L244.91,430.39L244.53,439.03L233.85,438.54ZM272.74,463.06L269.47,457.06L255.82,458.56L253.99,465.16L243.67,466.3L254.77,429L264.23,427.95L283.23,461.95L272.74,463.06ZM304.85,456.35C303.095,456.902 301.267,457.183 299.427,457.183C291.312,457.183 284.145,451.716 282,443.89L282,443.8C279.07,433.8 284.43,423.8 294.77,420.73C301.77,418.68 307.1,420.29 311.36,423.59L305.86,431.2C303.19,429.34 300.49,428.44 297.22,429.4C292.44,430.81 290.22,435.85 291.73,440.83L291.73,440.92C293.23,446.05 297.73,449.06 302.56,447.65C306.12,446.65 307.73,444.32 309.05,441.23L317.67,444.23C315.75,449.6 312.37,454.15 304.81,456.37L304.85,456.35ZM326.32,448L311.91,415.44L320.98,411.44L335.39,444L326.32,448ZM359.9,431.38C350.58,437.21 339.34,434.59 333.9,425.92L333.85,425.83C328.42,417.17 331.01,405.77 340.32,399.94C349.63,394.11 360.87,396.74 366.32,405.41L366.37,405.49C371.79,414.11 369.21,425.5 359.9,431.33L359.9,431.38ZM336,389.55L345.17,387.23L342.28,396.72L336.51,400.33L336,389.55ZM401.44,397.36L376.97,393.58L390.37,407.79L383.27,414.5L358.84,388.59L365.53,382.28L389.11,385.91L376.19,372.22L383.29,365.52L407.73,391.42L401.44,397.36ZM238,414.5C140.078,414.5 59.5,333.922 59.5,236C59.5,138.078 140.078,57.5 238,57.5C335.922,57.5 416.5,138.078 416.5,236C416.5,333.922 335.922,414.5 238,414.5ZM418.3,175.42L450.49,167L457.25,192.89L449.66,194.89L445.21,177.83L440.33,179.1L444.33,194.55L437.33,196.39L433.33,180.94L428.22,182.28L432.74,199.56L425.15,201.56L418.3,175.42ZM425.57,205L458.67,201.57L459.62,210.74L434.56,213.34L436.22,229.34L428.22,230.17L425.57,205ZM444.23,274.6C437.066,272.232 432.747,264.808 434.23,257.41C434.34,256.9 434.55,256.41 434.75,255.79C436.43,256.79 436.68,258.27 436.8,259.79C436.97,261.94 436.99,264.11 437.31,266.23C437.594,267.406 438,268.548 438.52,269.64C438.52,266.76 438.4,263.78 438.52,260.82C438.64,257.86 438.36,255.24 435.83,253.24C438.42,248.083 443.921,245.011 449.67,245.51C449.098,246.941 448.682,248.43 448.43,249.95C448.14,254.58 450.85,257.58 454.31,260.12C456.14,261.45 457.91,262.87 459.9,264.17C458.99,263.11 458.13,262.02 457.17,261.01C455.5,259.25 453.48,257.75 452.17,255.77C451.205,254.18 450.709,252.349 450.74,250.49C450.74,247.4 453.86,245.9 456.53,247.49C461.058,250.194 463.84,255.095 463.84,260.369C463.84,268.597 457.069,275.369 448.84,275.369C447.25,275.369 445.67,275.116 444.16,274.62L444.23,274.6Z" style="fill:white;fill-rule:nonzero;"/>
                </g>
                <g transform="matrix(1.333333,0,0,1.333333,0,0)">
                    <path d="M357.84,410.78C355.11,406.43 349.59,404.61 344.98,407.49C340.37,410.37 339.67,415.97 342.39,420.33L342.45,420.42C345.17,424.77 350.69,426.59 355.26,423.73C359.83,420.87 360.62,415.22 357.89,410.87L357.84,410.78Z" style="fill:white;fill-rule:nonzero;"/>
                </g>
                <g transform="matrix(1.333333,0,0,1.333333,0,0)">
                    <path d="M72.52,102L72.44,101.94C71.01,100.84 69.31,101.33 67.63,103.51L64,108.26L68.63,111.83L72.17,107.24C73.85,105 74.06,103.2 72.52,102Z" style="fill:white;fill-rule:nonzero;"/>
                </g>
                <g transform="matrix(1.333333,0,0,1.333333,0,0)">
                    <path d="M113.17,82.11C117.49,78.69 118.47,74.03 115.17,69.82L115.17,69.75C111.86,65.58 107.07,65.43 102.75,68.85L99.81,71.19L110.32,84.45L113.17,82.11Z" style="fill:white;fill-rule:nonzero;"/>
                </g>
                <g transform="matrix(1.333333,0,0,1.333333,0,0)">
                    <path d="M257.82,450.6L265.76,449.73L260.7,440.1L257.82,450.6Z" style="fill:white;fill-rule:nonzero;"/>
                </g>
                <g transform="matrix(1.333333,0,0,1.333333,0,0)">
                    <path d="M83.22,108.52L83.15,108.46C81.72,107.36 79.9,107.76 78.02,110.21L73.72,115.78L78.58,119.53L82.93,113.88C84.64,111.66 84.76,109.71 83.22,108.52Z" style="fill:white;fill-rule:nonzero;"/>
                </g>
                <g transform="matrix(1.333333,0,0,1.333333,0,0)">
                    <path d="M117.88,414.93L120.42,404.36L111.33,410.35L117.88,414.93Z" style="fill:white;fill-rule:nonzero;"/>
                </g>
                <g transform="matrix(1.333333,0,0,1.333333,0,0)">
                    <path d="M411.33,113.3L401.44,115.7L405.75,121.79L411.33,113.3Z" style="fill:white;fill-rule:nonzero;"/>
                </g>
                <g transform="matrix(1.333333,0,0,1.333333,0,0)">
                    <path d="M390.22,90L390.29,89.93C392.29,87.93 391.94,85.42 389.57,83.08L386.49,80.08L380.32,86.34L383.43,89.41C385.76,91.7 388.39,91.88 390.22,90Z" style="fill:white;fill-rule:nonzero;"/>
                </g>
                <g transform="matrix(1.333333,0,0,1.333333,0,0)">
                    <path d="M428.61,156.58L428.69,156.58C433.54,154.37 434.83,149.76 432.54,144.74L431,141.28L415.61,148.28L417.17,151.7C419.43,156.74 423.72,158.81 428.61,156.58Z" style="fill:white;fill-rule:nonzero;"/>
                </g>
                <g transform="matrix(1.333333,0,0,1.333333,0,0)">
                    <path d="M201,380.13L195.35,380.13L195.35,383.46L201.96,383.46L201.96,386.58L191.83,386.58L191.83,370.82L201.68,370.82L201.68,373.94L195.31,373.94L195.31,377.06L201,377.06L201,380.13Z" style="fill:white;fill-rule:nonzero;"/>
                </g>
                <g transform="matrix(1.333333,0,0,1.333333,0,0)">
                    <path d="M214.54,375.69L211.11,375.69L211.11,375.21C211.11,375.2 211.11,375.19 211.11,375.18C211.11,374.23 210.329,373.45 209.38,373.45C209.317,373.45 209.253,373.453 209.19,373.46C208.06,373.46 207.41,374.06 207.41,374.94C207.41,375.66 207.87,376.17 208.78,376.48L210.84,377.2C211.855,377.497 212.795,378.005 213.6,378.69C214.49,379.51 214.961,380.692 214.88,381.9C214.924,383.252 214.367,384.557 213.36,385.46C212.253,386.414 210.819,386.905 209.36,386.83C207.874,386.896 206.41,386.436 205.23,385.53C204.202,384.682 203.625,383.402 203.67,382.07L203.67,381.5L207.1,381.5L207.1,382.19C207.1,383.34 207.9,383.94 209.26,383.94C210.62,383.94 211.45,383.27 211.45,382.29C211.471,381.482 210.917,380.764 210.13,380.58L207.65,379.7C205.18,378.81 204.01,377.42 204.01,375.18C203.986,373.945 204.492,372.757 205.4,371.92C206.431,370.995 207.787,370.514 209.17,370.58C210.581,370.514 211.968,370.974 213.06,371.87C214.051,372.738 214.589,374.015 214.52,375.33L214.54,375.69Z" style="fill:white;fill-rule:nonzero;"/>
                </g>
                <g transform="matrix(1.333333,0,0,1.333333,0,0)">
                    <path d="M216.17,373.94L216.17,370.82L226.88,370.82L226.88,373.94L223.28,373.94L223.28,386.58L219.8,386.58L219.8,373.94L216.17,373.94Z" style="fill:white;fill-rule:nonzero;"/>
                </g>
                <g transform="matrix(1.333333,0,0,1.333333,0,0)">
                    <path d="M228,383.58C228.356,383.225 228.839,383.025 229.342,383.025C230.384,383.025 231.242,383.883 231.242,384.925C231.242,385.967 230.384,386.825 229.342,386.825C228.839,386.825 228.356,386.625 228,386.27C227.266,385.53 227.266,384.32 228,383.58Z" style="fill:white;fill-rule:nonzero;"/>
                </g>
                <g transform="matrix(1.333333,0,0,1.333333,0,0)">
                    <path d="M237.84,373.91L237.84,370.82L244,370.82L244,383.54L246.76,383.54L246.76,386.54L237.85,386.54L237.85,383.54L240.52,383.54L240.52,373.91L237.84,373.91Z" style="fill:white;fill-rule:nonzero;"/>
                </g>
                <g transform="matrix(1.333333,0,0,1.333333,0,0)">
                    <path d="M253.73,370.58C256.97,370.58 259.04,372.5 259.04,376.07L259.04,381.47C259.04,384.81 257.04,386.83 253.66,386.83C250.56,386.83 248.55,385.1 248.55,382.31L248.55,382.1L251.91,382.1L251.91,382.24C251.909,382.263 251.908,382.286 251.908,382.31C251.908,383.149 252.599,383.84 253.438,383.84C253.496,383.84 253.553,383.836 253.61,383.83C254.91,383.83 255.55,383.13 255.55,381.76L255.55,379.7C254.804,380.211 253.914,380.471 253.01,380.44C250.15,380.44 248.35,378.62 248.35,375.57C248.35,372.52 250.47,370.58 253.73,370.58ZM255.55,376.89L255.55,376.14C255.55,374.39 254.96,373.5 253.78,373.5C252.6,373.5 251.93,374.15 251.93,375.5C251.93,376.85 252.53,377.66 253.71,377.66C254.4,377.651 255.059,377.375 255.55,376.89Z" style="fill:white;fill-rule:nonzero;"/>
                </g>
                <g transform="matrix(1.333333,0,0,1.333333,0,0)">
                    <path d="M266.64,370.58C269.88,370.58 271.95,372.5 271.95,376.07L271.95,381.47C271.95,384.81 270,386.83 266.57,386.83C263.47,386.83 261.46,385.1 261.46,382.31L261.46,382.1L264.82,382.1L264.82,382.24C264.819,382.259 264.819,382.279 264.819,382.298C264.819,383.143 265.514,383.838 266.359,383.838C266.413,383.838 266.466,383.836 266.52,383.83C267.82,383.83 268.52,383.13 268.52,381.76L268.52,379.7C267.77,380.21 266.877,380.469 265.97,380.44C263.12,380.44 261.32,378.62 261.32,375.57C261.32,372.52 263.38,370.58 266.64,370.58ZM268.47,376.89L268.47,376.14C268.47,374.39 267.87,373.5 266.69,373.5C265.51,373.5 264.84,374.15 264.84,375.5C264.84,376.85 265.44,377.66 266.62,377.66C267.313,377.651 267.976,377.375 268.47,376.89Z" style="fill:white;fill-rule:nonzero;"/>
                </g>
                <g transform="matrix(1.333333,0,0,1.333333,0,0)">
                    <path d="M279.82,386.83C276.55,386.83 274.47,385 274.47,381.83L274.47,375.95C274.47,372.61 276.41,370.6 279.84,370.6C282.94,370.6 284.96,372.32 284.96,375.11L284.96,375.32L281.59,375.32L281.59,375.18C281.591,375.16 281.591,375.14 281.591,375.12C281.591,374.281 280.9,373.59 280.061,373.59C280.004,373.59 279.947,373.594 279.89,373.6C278.59,373.6 277.95,374.29 277.95,375.66L277.95,377.72C278.698,377.214 279.587,376.955 280.49,376.98C283.35,376.98 285.15,378.8 285.15,381.85C285.15,384.9 283.06,386.83 279.82,386.83ZM278,380.51L278,381.74C278,383.18 278.6,383.9 279.82,383.9C281.04,383.9 281.62,383.25 281.62,381.9C281.62,380.55 281.02,379.74 279.84,379.74C279.149,379.74 278.485,380.017 278,380.51Z" style="fill:white;fill-rule:nonzero;"/>
                </g>
                <g transform="matrix(1.333333,0,0,1.333333,0,0)">
                    <path d="M146.15,117.47C164.01,116.47 178.44,121.47 191.28,130.87C212.6,146.52 226.08,167.35 231.28,193.37C236.66,220 248,244 263.73,266C264.498,267.025 265.537,267.815 266.73,268.28C272.58,270.5 277.48,274.04 282.15,278.16C293.38,288.08 304.85,297.72 316.15,307.57C319.65,310.57 323.2,313.45 327.64,315.09C330.18,316.04 330.35,317.19 328.58,319.28C325.707,322.68 322.8,326.053 319.86,329.4C318.19,331.3 316.95,331.3 315.74,329.02C313.42,324.68 309.83,321.6 306.2,318.49C293.2,307.31 280.09,296.18 267.2,284.8C264.67,282.56 263.12,279.23 260.92,276.56C259.706,274.892 258.173,273.481 256.41,272.41C234.503,261.048 210.582,254.083 186,251.91C177.28,251.16 168.53,251.01 160.07,248.57C135.79,241.57 115.36,228.92 102.23,206.81C79.35,168.29 104.04,128.36 136.66,119.38C140.29,118.37 144.08,117.87 146.15,117.47ZM204.67,248C213.28,250.26 221.73,252.12 229.93,254.74C238.13,257.36 246.19,260.74 254.6,263.94C244.841,249.428 237.031,233.697 231.37,217.15C227.7,232 218.9,242.27 204.67,248ZM165.56,161.35L168.83,165.58L172.7,161.79L168.54,158.08L165.56,161.35ZM144.39,186.47L140.93,189.84L144.57,193.54L148.31,189.99L144.39,186.47ZM211.92,202.47L215.32,205.7L219,202.3L215.56,198.4L211.92,202.47ZM196.92,182.47L193.33,186.37L196.79,189.75L200.67,185.99L196.92,182.47ZM128.3,205.26L124.63,208.55L128.77,212.41C130,211.07 131.06,209.92 132.35,208.5L128.3,205.26ZM178.23,173.74L182.01,169.93L178.63,166.74L174.4,170.54L178.23,173.74ZM150.04,141.85L146.58,145.7L149.46,148.99L154,145.34L150.04,141.85ZM167.18,157.46L164.23,154.23L160.53,157.92L163.75,161.32L167.18,157.46ZM134.57,216.93L138.35,220.69L141.28,217.1L137.91,213.42L134.57,216.93ZM154.32,201.45L157.49,198.25L153.83,194.85L150.41,198.64L154.32,201.45ZM103.5,158.19L107.31,161.33L110.54,158L107.13,154.49L103.5,158.19ZM161,175.36L164.3,171.27L160.24,167.93L156.66,171.65L161,175.36ZM179.6,174.79L182.9,177.73L186.81,173.6L183.14,170.6L179.6,174.79ZM156.38,236.25L160.56,232.76L156.45,229.41L153,233L156.38,236.25ZM158.51,149.25L154.94,146.32L151.12,150.46L154.65,153.35L158.51,149.25ZM172.73,211.18L169.13,214.83L172.86,217.89L176.33,214.25L172.73,211.18ZM125.93,177.46L129.32,173.88L125.69,170.53L122,174.24L125.93,177.46ZM220,209.63L223.79,205.94L220.58,202.79L216.88,206.79L220,209.63ZM188.41,143.55L184.99,139.55L181.25,143.07L185.43,146.9L188.41,143.55ZM123.91,209.7L120.8,213.13L124.97,216.86L127.97,213.54L123.91,209.7ZM152.63,176L157,179.91L159.65,176.63L155.93,172.78L152.63,176ZM206.74,190.71L202.57,194.71L205.91,197.46L210.03,193.55L206.74,190.71ZM140.25,199.4L135.8,195.73L133,199.24L137.1,203L140.25,199.4ZM145,185.07L149.16,188.84L152.16,185.64L147.92,181.87L145,185.07ZM191.73,185.42L195.73,181.78L192.57,178.73L188.83,182.54L191.73,185.42ZM177.13,147.64L181.32,151.29L184.23,148.05L180.46,144.23L177.13,147.64ZM191.21,226.87L187.52,230.65L191.52,233.85L195.06,230.11C193.62,228.88 192.46,227.92 191.21,226.87ZM140.51,141.22L144.12,137.27L141.25,134.43L137,138.33L140.51,141.22ZM106.33,192.43L109.76,195.9L113,192.61L109.61,189L106.33,192.43ZM132,133.88C132.78,132.67 133.43,131.66 134.09,130.66C134.39,130.21 134.72,129.78 135.02,129.36C132.59,126.51 129.76,126.91 127.85,130.47L132,133.88ZM165.22,170.08L168.22,166.58L164.49,162.9C160.32,166.76 160.44,167.36 165.2,170.08L165.22,170.08ZM195.28,222.37L191.88,225.77L195.71,229.11L198.71,225.81L195.28,222.37ZM166,187.63L169.29,184.76L165.75,181.21L162.62,184.66L166,187.63ZM148.52,229.15L151.97,232.39L155.39,228.62L152,225.68L148.52,229.15ZM178.41,222.79L181.81,225.54L185.2,222.35L182.09,219L178.41,222.79ZM176.41,157.45L172.6,153.45L169.6,156.58L173.6,160.58L176.41,157.45ZM164.82,227L167.89,224L164.36,220.42L161.46,223.3L164.82,227ZM170.15,183.3L173.59,179.74L170.07,176.34L166.68,179.78L170.15,183.3ZM186.04,165.3L182.13,161.8L179.47,165L183.15,168.71L186.04,165.3ZM167.65,206.97L164.71,210.54L167.97,213.94L171.61,209.84L167.65,206.97ZM180.22,239.38L183.56,243.13L186.61,240.05L182.86,236.27C181.81,237.47 180.89,238.55 180.22,239.35L180.22,239.38ZM189.02,199.25L192.18,195.75C188.73,191.67 187.61,191.75 185.26,196.47L189.02,199.25ZM206.55,208.16C206.08,208.89 205.66,209.58 205.2,210.24C204.74,210.9 204.27,211.46 203.75,212.14C204.5,212.84 205.07,213.4 205.68,213.91C206.29,214.42 206.91,214.84 207.49,215.27C211.47,211.81 211.42,211.24 206.55,208.13L206.55,208.16ZM113,166.5L116.24,169.16L119.8,165.79L116.32,162.42L113,166.5ZM205.89,171.91L209.32,175.38L212.44,172.06L208.68,168.67L205.89,171.91ZM111.12,197C114.62,200.78 115.31,200.67 117.59,196.13L114.4,193L111.12,197ZM195.87,237.7L199.12,234.34L196.05,230.96C194.76,232.38 193.7,233.56 192.69,234.69L195.87,237.7ZM119.72,139.49L123.3,142.89L126.65,139.24L123,135.72L119.72,139.49ZM134,177.56C132.62,176.43 131.48,175.51 130.82,174.96L126.91,178.48L130.62,181.48L134,177.56ZM139.57,133.51L136.5,130.51L132.41,134.4L136.1,137.4L139.57,133.51ZM173.92,162.51L170.02,166.51L173.58,169.76L177.31,165.49L173.92,162.51ZM111.07,149.85L107.89,153L111.62,156.48L114.62,153.13L111.07,149.85ZM145.61,138.01L141.81,141.91L145,145.02L148.78,141.21L145.61,138.01ZM159.61,150.07L155.61,154.23L159.33,157.31L162.92,152.96L159.61,150.07ZM173.46,152.07L177.56,156.02L180.68,152.59L176.54,148.9L173.46,152.07ZM194.35,147.16C193.11,149.16 191.68,150.49 191.62,151.89C191.62,152.76 193.62,154.45 194.7,154.43C195.78,154.41 197.7,152.43 197.52,151.68C197.22,150.25 195.72,149 194.32,147.18L194.35,147.16ZM173.53,209.76L177.14,212.88L180.14,209.67C176.67,205.68 176,205.69 173.5,209.78L173.53,209.76ZM202.28,186.88L198,190.85L201.12,193.37L205.35,189.9L202.28,186.88ZM210.92,194.4C209.64,195.89 208.51,197.2 207.17,198.74L210.78,201.74L214.5,197.52L210.92,194.4ZM115.51,144L119.39,147.51L122.39,144.44L118.69,140.44L115.51,144ZM133.2,207.57L135.95,204.18L131.84,200.18L128.84,203.92L133.2,207.57ZM155.93,180.85L152.1,177.27C148.1,180.7 148.33,181.69 153.43,184.18L155.93,180.85ZM169.17,240.79L166.17,237.71L162.64,241.29C165.89,245 166.16,245 169.17,240.78L169.17,240.79ZM191.17,177.72L188.09,174.87L184.24,178.48L187.66,181.9L191.17,177.72ZM201.44,184.42L204.64,181.32L200.74,177.72L197.63,181.53L201.44,184.42ZM216.44,197.32L220,200.69L223.2,197.4L219.32,193.7L216.44,197.32ZM140.04,191.46L136.74,194.52L140.74,198.35L144.05,194.83L140.04,191.46ZM203.63,219.87L206.46,216.66C205.19,215.39 204.09,214.27 203.11,213.27L199.54,216.61L203.63,219.87ZM120.41,204.49L123.72,208L126.63,204.44L123.63,201.01L120.41,204.49ZM146.2,211C147.45,209.73 148.49,208.69 149.43,207.75L145.68,204L142.55,207.71L146.2,211ZM139.55,189.48L142.81,185.53L139.35,182.38L136.44,185.93L139.55,189.48ZM188.05,200.32L184.57,197.32L181.14,200.53L184.88,203.95L188.05,200.32ZM139.66,221.44L142.77,224.44L146.22,220.78L142.65,217.44L139.66,221.44ZM158.66,198.92L155.71,202.52L158.76,206L162.31,201.92L158.66,198.92ZM130.06,172.55C133.81,169.23 133.73,168.62 129.45,166.06L126.26,169.15L130.06,172.55ZM141.2,160.12L137.27,156.58L134.01,160.08L138.17,163.54L141.2,160.12ZM187.13,156.12L190.84,159.33L193.84,156.02L190,152.39L187.13,156.12ZM162.58,135.12L165.58,131.42L161.58,128.16L158.51,131.89L162.58,135.12ZM213.28,170.85C217.02,167.6 216.87,166.21 212.86,164.09L209.53,167.59C210.26,168.28 210.77,168.79 211.31,169.26C211.85,169.73 212.57,170.31 213.29,170.89L213.28,170.85ZM157.92,190.27C154.02,193.67 154.16,194.56 158.63,196.72L161.71,193.46L157.92,190.27ZM121.27,183.03L117.44,179.88L114.26,183.36L118.26,186.7L121.27,183.03ZM138.14,155.89C139.5,156.77 140.81,158.2 142.22,158.3C143.06,158.36 144.96,156.11 144.76,155.3C144.42,153.93 142.76,152.87 141.5,151.45L138.14,155.89ZM155.81,237.67L152.18,234.1L149.18,237.72C152.76,241.4 153.43,241.37 155.82,237.71L155.81,237.67ZM133.65,218.07L130.59,221.66L134.4,225.16L137.47,221.79L133.65,218.07ZM152.35,167.19L155.58,170.66L158.58,167.28L155.48,163.69L152.35,167.19ZM196.21,190.76L192.37,187.6L189.37,190.78L193.2,194.78L196.21,190.76ZM208,166.49L211.9,162.86L208.43,160C207.2,161.32 206.14,162.47 204.91,163.78C206.17,164.89 207.23,165.83 208,166.49ZM174.33,130.49L170.68,127.49L167.75,131.07L171.06,134.6L174.33,130.49ZM174.93,187.44L178.33,183.31L174.6,180.36L171.39,184.29L174.93,187.44ZM214.93,207.17L211.26,203.78L207.93,207.05L211.85,210.63L214.93,207.17ZM208.3,224L211.3,220.31L207.81,217.48L204.66,220.68C206,221.81 207,222.76 208.3,224ZM161,231.52L164.09,228.42L160.78,225.13L157.12,228.34L161,231.52ZM111.74,158.41L108.62,162.41L111.73,165.47L115.27,161.8L111.74,158.41ZM187,223.34L182.89,226.73L186.33,229.52L190.08,225.79L187,223.34ZM164.72,237L161.55,234L157.91,237.37L161.47,240.52L164.72,237ZM150,159L146.56,156.17L143.14,159.52L146.6,163L150,159ZM187.8,238.52L190.66,235.04L186.87,231.72L183.72,235.31L187.8,238.52ZM197.2,238.63L200.43,241.55L204.02,238.11L200.6,235L197.2,238.63ZM196,155.7L199,158.61L202.91,155.12L199.07,152L196,155.7ZM186.6,157.62L182.93,160.7L186.66,164.01L190.11,160.78L186.6,157.62ZM130.54,134.62L127.08,131.19L123.92,134.46L127.46,137.94L130.54,134.62ZM142.29,161L139.14,164.16L142.44,167.25L145.54,164.08L142.29,161ZM195.29,157L192.08,160.18L195.54,163.55L198.6,159.83L195.29,157ZM124.56,169.44L121.1,166.66L117.81,170.18L120.96,173.18L124.56,169.44ZM170.86,175C174.25,179 174.86,179 177.32,175.11L173.56,171.67L170.86,175ZM134.78,185.2L138.66,181.55L135.08,178.62L131.65,182.15L134.78,185.2ZM143.89,184.62L146.96,180.77L143.55,178L140.29,181.47L143.89,184.62ZM196.12,174.11C195.12,175.11 194.18,176.19 193.18,177.26L196.54,180.26L199.82,176.99L196.12,174.11ZM205.57,180.29L208.57,176.59L204.74,173.08L201.67,176.85L205.57,180.29ZM101.38,188.84L104.93,191.76L108.45,187.93L104.84,185L101.38,188.84ZM154,137.35L150.92,140.63L154.48,144.16L157.63,140.97L154,137.35ZM110.35,187.77C114.21,191.77 114.75,191.77 116.96,187.64L113.35,184.19L110.35,187.77ZM159.67,197.89L162.95,200.77L166.11,197.66L162.94,194.66L159.67,197.89ZM180.21,135.57L176.68,139L179.68,142L183.68,138.51L180.21,135.57ZM158.87,189C161.72,193.09 162.87,193.09 165.25,189.11L161.52,185.59L158.87,189ZM131.65,198.52L134.79,194.9L131.69,192.07L128.27,195.38L131.65,198.52ZM207.16,189.65L210.59,192.42L213.52,189.27L210.25,186L207.16,189.65ZM145.88,194.82L149.25,197.55L152.96,193.9L149.18,190.8L145.88,194.82ZM158.61,141.74L155.83,144.74L159.27,148.19L162.33,144.76L158.61,141.74ZM175.53,140.38L172.63,143.99L176.17,146.88L179.39,143.47L175.53,140.38ZM115.42,152.24L118.24,148.76L114.84,145.24L111.84,148.44L115.42,152.24ZM128.83,147.72L132.24,150.52L136.05,147.01L132.42,144.01L128.83,147.72ZM187.61,191.39L183.74,188.25L180.74,192.08L183.74,194.92L187.61,191.39ZM122.39,200.2L119.39,197.28L115.49,201L119.31,204.08L122.39,200.2ZM179.98,193.3L176.53,196.78L179.78,199.43L183.28,196.18L179.98,193.3ZM153.38,203.14L149.9,199.83L146.45,203.26L150.45,206.52L153.38,203.14ZM119.63,206.14L116.13,209.49L119.56,212.3L122.66,209.03L119.63,206.14ZM159.77,206.76L163.42,209.93L166.94,205.93L163.38,203L159.77,206.76ZM180.59,201.66L177.21,205.04L180.94,208.54L184,205.15L180.59,201.66ZM128.24,149L125.13,152.56L128.13,155.19L131.58,151.81L128.24,149ZM201.24,203.86L198.09,200.63L194.66,204.15L198.04,207.15C199.3,205.85 200.34,204.77 201.25,203.83L201.24,203.86ZM130.11,212.86L133.04,216.07L136.93,212.52L133.48,209.52L130.11,212.86ZM150.87,214.98L153.87,211.73L150.72,208.57L147.4,212.13L150.87,214.98ZM190.87,208.46L193.93,211.66L197.08,208.52L193.59,205.18L190.87,208.46ZM168.15,215.53L165.23,218.92L168.8,222.34L172.17,218.99C170.81,217.79 169.67,216.81 168.15,215.49L168.15,215.53ZM177.62,222.04L180.76,218.19L177.59,215L173.81,218.93L177.62,222.04ZM215.06,215.65L212.38,212.74L208.3,216.27L211.96,219.39L215.06,215.65ZM147.61,221.92L144.09,225.14L147.36,228.54L150.94,224.69L147.61,221.92ZM195.86,221.25L199.75,224.69L202.75,221L198.82,217.72L195.86,221.25ZM138.78,222.55L135.37,226.13L138.79,228.92L142.12,225.44L138.78,222.55ZM172,202.32L168.71,205.82L172.28,209.04L175.35,205.28L172,202.32ZM154.8,171.65L151.28,168.76L148.4,172L152.1,175.78C152.79,174.68 153.26,173.92 153.75,173.18C154,172.73 154.3,172.35 154.8,171.65ZM160.06,216.4C156.06,219.34 156.15,220.23 159.97,222.57L163.27,219.49L160.06,216.4ZM134.13,168.17L137.2,164.78L133.25,161L130.13,164.7L134.13,168.17ZM122.66,190.4C126.27,187.34 126.23,186.75 122.2,184.19C118.59,187.25 118.64,187.9 122.66,190.4ZM154.79,136.26C158.54,140.26 159.22,140.18 161.37,136.04L158,132.88C156.81,134.11 155.84,135.14 154.79,136.26ZM142.1,215.33L145.52,212.33L142.19,209L138.49,212.39L142.1,215.33ZM163.64,135.94L166.84,139.03C170.69,135.79 170.61,134.89 166.24,132.59L163.64,135.94ZM105.48,175.46L108.48,178.46L111.79,175.05L108.17,171.65L105.48,175.46ZM113.48,201.03L110.11,197.84L107.19,201.4L110.46,204.66L113.48,201.03ZM131.63,173L134.78,176.75L137.58,173.27L134.36,170L131.63,173ZM186,214.48L182.78,217.83L186.32,221.04L189.13,217.58L186,214.48ZM171,191.81L174,188.68L170.45,185.16L167.4,189L171,191.81ZM201.18,168.31L204.45,171.31L207.73,168L204.15,164.92L201.18,168.31ZM148.18,237.16L151.3,233.35L147.55,230.28L144.37,233.9L148.18,237.16ZM120.66,164.37L123.82,161.24L120.4,158.08L117.23,161.35L120.66,164.37ZM218.73,183.43L221.73,180.19L218.23,176.74L215.09,180.38C215.89,181.12 216.46,181.67 217.09,182.18C217.46,182.54 217.92,182.85 218.71,183.43L218.73,183.43ZM173.95,228.43C170.16,231.76 170.21,232.3 174.44,234.85L177.13,231.53L173.95,228.43ZM200,226.37L196.66,230L200.15,232.83L203.5,229.51L200,226.37ZM220.29,228.54C217.35,224.65 216.29,224.72 214.09,228.69L217.28,231.87C218.43,230.59 219.38,229.55 220.28,228.54L220.29,228.54ZM146.12,153.92L149.07,150.85L145.57,147L142.39,150.52L146.12,153.92ZM148.24,132.64L144.6,129.52L141.6,133.14L145.33,136.14L148.24,132.64ZM118.39,178.57L121.89,182.03C125.72,178.62 125.66,178.16 121.13,175.39L118.39,178.57ZM121.46,221.57C122.39,220.02 123.86,218.5 123.55,217.88C122.755,216.507 121.512,215.447 120.03,214.88C119.48,214.67 118.23,216.28 117.09,217.23L121.46,221.57ZM205.46,198.76L202,195.93L198.79,199.29L202.48,202.38L205.46,198.76ZM175.69,179.15L178.69,182.02L182.24,179.02L179.07,175.96L175.69,179.15ZM164.8,152.8L167.94,155.88L171.09,152.88L167.76,149.36L164.8,152.8ZM219.11,211.19L215.89,207.83L212.89,211.08L216.8,214.91C217.42,213.84 217.8,213.06 218.31,212.31C218.59,211.85 218.94,211.43 219.11,211.19ZM187.36,172.57C191.18,169.39 191.06,168.29 187.07,166.46L184.07,169.46L187.36,172.57ZM162.89,162.44L159.6,159.44L156.46,162.67L159.84,165.85L162.89,162.44ZM154.55,127.52L157.32,130.79L160.62,127.57L157.12,124.32L154.55,127.52ZM189.82,200.24L193.41,203.17C197.41,199.78 197.34,198.75 193.2,196.75L189.82,200.24ZM129.28,220.82L132.78,217.4L129.32,214.6L126.07,217.67L129.28,220.82ZM171.86,135.6C173.32,136.49 174.65,137.95 175.77,137.81C177.108,137.318 178.086,136.145 178.33,134.74C178.26,133.61 176.58,132.57 175.33,131.23L171.86,135.6ZM172.11,151.49L175.39,148L172,144.82L168.75,148.36L172.11,151.49ZM191.11,167.82L194.7,164.47L190.99,161.47C189.89,162.82 188.99,163.91 187.99,165.15L191.11,167.82ZM199.81,161.04L196.38,164.39L199.87,167.24L203.27,163.79L199.81,161.04ZM166.09,140.46L162.73,137C161.63,138.26 160.73,139.32 159.88,140.23L163.27,143.72L166.09,140.46ZM171.21,136.59L168,139.72L171.75,143.09L174.86,139.34L171.21,136.59ZM124.21,143.96C125.72,144.91 127.03,146.38 128.16,146.26C129.491,145.789 130.478,144.646 130.75,143.26C130.69,142.12 129.02,141.07 127.89,139.79L124.21,143.96ZM136.63,145.9L139.63,142.56L136.33,139.16L133.27,142.91L136.63,145.9ZM178.24,213.78L181.76,217.22L184.76,213.62L181.52,210.47L178.24,213.78ZM202.24,211.13L206.39,207.13C204.77,206.13 203.49,204.81 202.28,204.87C201.002,205.306 200.05,206.395 199.79,207.72C199.8,209 201.31,210 202.17,211.13L202.24,211.13ZM187.74,190L191.19,187L188.19,184L184.71,187.22L187.74,190ZM211.28,184.87L214.65,188.08L217.48,184.86L214.35,181.44L211.28,184.87ZM140.73,150.71C139.08,149.71 137.73,148.32 136.61,148.49C135.282,148.997 134.32,150.177 134.09,151.58C134.17,152.7 135.87,153.71 137.09,154.95L140.73,150.71ZM193.13,147.13C189.85,143.29 188.85,143.44 186.67,147.94L189.95,150.94L193.13,147.13ZM124.77,160L127.59,156.52L124.44,153.58L121.06,156.89L124.77,160ZM132.84,152.7L129.74,156.11L133,159.22L136.11,156L132.84,152.7ZM150.55,151.57L147.55,154.62L150.85,158.1L153.93,154.34L150.55,151.57ZM189.1,151.83L185.86,149.1L182.68,152.16L185.94,155.28L189.1,151.83ZM175.79,188.47C177.26,189.36 178.59,190.81 179.71,190.67C181.042,190.176 182.015,189.009 182.26,187.61C182.19,186.48 180.51,185.45 179.31,184.13L175.79,188.47ZM192.72,204.47L189.34,201.47L185.91,204.84L189.36,207.65L192.72,204.47ZM166.81,190C165.68,191.14 164.69,192.16 163.81,193.08L166.92,196.27L169.92,193.09L166.81,190ZM175.47,195.9L178.73,192.36L175.4,189.49L171.87,192.75L175.47,195.9ZM118.47,188.44L115.41,191.86L118.82,195.25L121.72,191.71L118.47,188.44ZM156.65,189.17L153,186.4L150.12,189.9L153.86,192.96L156.65,189.17ZM127.13,194.49L130.33,191.1L126.67,187.89L123.83,191.34L127.13,194.49ZM127.93,203.16L130.99,199.36L127.51,196.51L124.2,200L127.93,203.16ZM214.93,189.75L212,193.26L215,196.19L218.33,192.99L214.93,189.75ZM154.72,203.9L151.61,207.28L154.78,210.35L158,207L154.72,203.9ZM205.85,188.42L209.27,185.23L206,182.32L202.62,185.51L205.85,188.42ZM132.34,190.73L135.47,193.55L138.81,190.43L135.27,187.23L132.34,190.73ZM165.67,172.07L161.74,176.26C163.3,177.26 164.56,178.58 165.74,178.53C166.67,178.53 168.29,176.64 168.23,175.68C168.11,174.51 166.62,173.42 165.6,172.09L165.67,172.07ZM118.3,205.24L114.97,202.15L112,205.11L115,208.56L118.3,205.24ZM200.76,176C201.87,174.6 202.76,173.47 203.44,172.61L200.33,169.22L197,173L200.76,176ZM147.46,173.27L144.36,176.46L147.83,180.05L150.95,176.24L147.46,173.27ZM135.64,177.37L139.24,180.52L142.18,177.17L138.81,173.97L135.64,177.37ZM138,204L141.38,206.71L144.7,203.32L140.91,200.23L138,204ZM116.1,179.3L112.75,175.85L109.75,179.25L113.12,182.69L116.1,179.3ZM170.55,201.63L167.18,198.27L164.26,201.84L167.6,205L170.55,201.63ZM175.66,197.63L172.77,201.15C173.98,202.35 174.98,203.37 175.99,204.38L179.34,200.67L175.66,197.63ZM104.24,176.49L101.43,179.49L104.67,183.27L107.67,179.63L104.24,176.49ZM193.14,213.18L189.78,209.79L186.78,213.23L189.96,216.32L193.14,213.18ZM195.22,212.57L198.42,215.62L201.92,212.25L198.24,209.25L195.22,212.57ZM143.58,168.13L147.19,171.47L150.26,167.72L146.7,164.86L143.58,168.13ZM141.9,168.49L138.55,165.76L135,169L138.75,172L141.9,168.49ZM112.19,167.66L109.25,170.66L112.33,173.82L115.67,170.35L112.19,167.66ZM214,173.06L210.71,176.32L214,179.45L217.05,176.09C215.88,175 214.88,174 214,173.06ZM156.17,227.58L159.49,224.03L156,220.94L152.6,224.33L156.17,227.58ZM103.87,174.58L106.87,171.33L103.96,168.33L100.44,171.56L103.87,174.58ZM190.62,218.5L187.21,221.89L190.6,224.66L193.95,221.5C192.63,220.31 191.58,219.36 190.6,218.47L190.62,218.5ZM220.37,219.26C218.72,218.31 217.37,216.89 216.24,217.06C214.919,217.573 213.966,218.751 213.74,220.15C213.84,221.29 215.54,222.28 216.68,223.48L220.37,219.26ZM203.86,162.7L207.22,159.24C203.88,155.35 202.9,155.5 200.72,160.04L203.86,162.7ZM157.86,180.7L161.58,183.7L164.5,180.58L161.17,177.11L157.86,180.7ZM140.13,229.76L143.51,232.96L146.74,229.61L143.11,226.46L140.13,229.76ZM169.61,231.21L172.49,228.02L169.75,224.96L166.19,227.83L169.61,231.21ZM181.25,226.82L177.98,224.14L174.56,227.44L177.94,230.44L181.25,226.82ZM212.83,227.82L215.91,224.25L212.22,221.25C211.15,222.56 210.22,223.66 209.22,224.99L212.83,227.82ZM154.83,162.74C153.07,161.74 151.77,160.44 150.59,160.55C149.59,160.63 147.99,162.55 148.14,163.41C148.36,164.68 149.9,165.71 150.97,166.95L154.83,162.74ZM167.26,214.74L163.93,212L160.76,215.06L163.95,218.22L167.26,214.74ZM155.72,219L158.34,215.8L155.14,212.23C153.97,213.55 153.03,214.61 151.81,215.97L155.72,219ZM146.72,212.83L143.97,216.2L146.97,219.56L150.47,216.11L146.72,212.83ZM173.3,236.17L169.85,232.82L166.85,236.47L170.28,239.62L173.3,236.17ZM175.21,235.94L178.91,238.94L181.62,235.62L178.54,232.47L175.21,235.94ZM204.81,237.11L207.81,233.68C206.62,232.5 205.62,231.5 204.53,230.43C203.39,231.65 202.39,232.73 201.38,233.83L204.81,237.11ZM149.05,131.62L151.8,128.48L148.63,124.78L145.52,128.6L149.05,131.62ZM126.65,186.13L129.65,182.4L126.15,179.54L123.15,182.76L126.65,186.13ZM192.29,242.52L195.15,239.04L191.73,235.84L188.57,239.6L192.29,242.52ZM204.11,222L200.91,225.22L204.09,228.37L207.42,224.96L204.11,222ZM195.18,173.32C191.88,169.48 191.39,169.52 188.82,173.54L192.02,176.6L195.18,173.32ZM112.44,157.52L116,160.41L119.15,157.12L115.58,153.88L112.44,157.52ZM124.87,161.72L121.65,165.43L125.37,168.5L128.52,164.93L124.87,161.72ZM192.25,138.65L188.14,135.53L185.52,138L189.52,142C190.17,141.3 190.68,140.8 191.13,140.25C191.531,139.726 191.905,139.182 192.25,138.62L192.25,138.65ZM209.88,233L212.98,236.66C217.04,232.8 216.98,232.05 212.69,229.95L209.88,233ZM127,148C123.57,144.3 123,144.37 120.9,148.19L123.9,151.36L127,148ZM191.29,243.33L187.99,240.55L184.74,243.89C187.46,246.83 188.94,246.73 191.28,243.31L191.29,243.33ZM210.08,202.75L206.33,199.68L203.47,203.22L206.71,206.09L210.08,202.75ZM166.59,130.43C167.22,129.74 167.89,129.05 168.5,128.32C168.91,127.83 169.23,127.32 169.58,126.79C166.66,124.2 164.58,124.36 162.65,127.53L166.59,130.43ZM149.77,140.12L152.44,136.87L149.24,133.35L146.24,136.98L149.77,140.12ZM224.66,213.8C226.91,212.3 226.83,210.21 226.46,208.26C226.24,207.12 225.23,206.26 224.01,207.58C223.11,208.58 222.3,209.65 221.26,210.93L224.66,213.8ZM183.39,185.88L187,182.88L183.36,179.88C179.65,183.19 179.7,183.7 183.38,185.86L183.39,185.88ZM178.19,164.57L181.14,160.84L177.56,158L174.49,161.34L178.19,164.57ZM182.59,244.28L179,240.79C178.22,241.65 177.62,242.27 177.05,242.93C176.7,243.35 176.41,243.81 176.05,244.23C178.3,246.85 180.75,246.84 182.58,244.26L182.59,244.28ZM138,146.32L141.37,149.88L144.26,146.36L140.75,143.08L138,146.32ZM109.13,197.22L105.47,193.87C102.93,196.08 103.16,198.11 106.12,200.58L109.13,197.22ZM133.45,226.63L129.66,222.63L126.9,226.08L131,229.08L133.45,226.63ZM201,194.88L197.23,191.94C193.72,195.55 193.77,195.94 197.72,198.15L201,194.88ZM140.14,125.41L137.01,129.21L140.41,131.96L143.61,128.74L140.14,125.41ZM169.66,174.41L172.73,170.69L169.23,167.54L166.03,171.31C167.29,172.3 168.31,173.18 169.69,174.36L169.66,174.41ZM139.8,172.7C143.06,176.44 143.58,176.4 145.91,172.7L142.76,169.06L139.8,172.7ZM113.73,174.7C116.85,178.45 117.54,178.4 119.86,174.51L116.69,171.21L113.73,174.7ZM167.18,141.25C163.64,144.34 163.68,144.84 167.65,147.32C171.33,144.42 171.25,143.43 167.18,141.2L167.18,141.25ZM159.36,214.43C163.15,210.94 163.11,210.51 159.27,208.23L155.77,211.34L159.36,214.43ZM185.36,206.12C181.65,209.05 181.73,210.12 185.81,212.26L189,209L185.36,206.12ZM153.36,135.49C157.28,132.17 157.18,131.14 152.88,129.12L150.11,132.52L153.36,135.49ZM132,141.73L135.22,138.56L131.72,135.26L128.82,138.83C129.37,139.41 129.73,139.83 130.15,140.21C130.69,140.74 131.33,141.23 132,141.73ZM163.73,152C167.38,148.53 167.32,148 163.19,145.82L160,149.15L163.73,152ZM120.1,155.76C123.68,152.53 123.63,152.01 119.62,149.62C116.05,152.64 116.08,153.18 120.1,155.77L120.1,155.76ZM102.55,159.32C100.23,163.16 100.45,164.32 103.55,165.73L107.03,162.02L103.85,160.15L102.55,159.32ZM125.71,160.58C129.07,164.34 129.62,164.29 132.16,160.08L128.63,157.18L125.71,160.58ZM148.18,220.21C151.53,224.11 152.51,224 154.51,219.67L151.2,217L148.18,220.21ZM181.71,153.21C180.84,154.14 180.32,154.64 179.87,155.21C179.42,155.78 179.05,156.32 178.68,156.85C181.98,160.47 182.55,160.41 184.96,156.21L181.71,153.21ZM108.89,180.4L105.89,183.84L109.25,187.01L112.42,183.56L108.89,180.4ZM223.33,189.52L219.93,193.18C221.06,193.95 221.93,194.62 222.93,195.18C223.42,195.46 224.22,195.84 224.55,195.64C225.1,195.31 225.75,194.5 225.69,193.97C225.48,192.26 225.55,190.31 223.33,189.49L223.33,189.52ZM162.4,232.57C165.64,236.16 166.12,236.11 168.55,232.08C165.52,228.51 165,228.54 162.4,232.57ZM197.79,216.57L194.25,213.67L191.31,217C194.53,220.87 195,220.84 197.79,216.6L197.79,216.57ZM145.29,202.27C149.11,198.88 149.06,198.34 144.84,195.82L141.93,199.36L145.29,202.27ZM208.36,225.56L205.36,229.03C208.53,232.93 209.61,232.82 211.74,228.54L208.36,225.56ZM171.71,200.38L174.65,196.75L171.38,193.75L167.83,197.32L171.71,200.38ZM223.92,214.64L220.31,211.64L217.42,215C220.59,218.92 221.13,218.89 223.92,214.67L223.92,214.64ZM218.92,191.5L222.36,188.5L219,185.41C215.22,188.7 215.24,189 218.93,191.53L218.92,191.5ZM133.92,186.43C131,182.78 130.02,182.86 127.85,186.94C131.05,190.51 131.48,190.47 134,186.46L133.92,186.43ZM192.69,168.76C195.59,172.48 196.64,172.39 198.78,168.44L195.67,165.38L192.69,168.76ZM160.79,184.76L157.15,181.76C153.45,185.19 153.49,185.63 157.75,188.11L160.79,184.76ZM107.55,163.63L104.26,167.05L107.77,169.83C111.62,166.91 111.6,166.33 107.61,163.65L107.55,163.63ZM221.09,201.52C222.01,202.34 222.64,202.95 223.32,203.52C223.74,203.859 224.178,204.176 224.63,204.47C227.46,202.06 227.26,200 223.92,198.22L221.09,201.52ZM137.26,204.85C136.64,205.43 136.26,205.85 135.84,206.18C135.15,206.74 134.42,207.26 133.84,207.71C137.18,211.95 138.24,211.87 140.36,207.86L137.26,204.85ZM151.77,158.58C155.12,162.38 155.77,162.33 158.04,158.39L154.81,155.03L151.77,158.58ZM174.53,236.86C170.73,240.34 170.78,240.86 175,243.32L177.9,239.8L174.53,236.86ZM119.46,196.03L123.01,199.03C126.87,195.79 126.79,194.88 122.46,192.65L119.46,196.03ZM185.46,230.82C182.46,227.2 181.46,227.29 179.4,231.37C182.58,234.88 183,234.84 185.53,230.84L185.46,230.82ZM213,180.52C209.66,176.92 209.2,176.97 206.85,181.03C209.87,184.62 210.33,184.59 213,180.52ZM176.71,223.07C175.85,222.26 175.35,221.74 174.8,221.29C174.25,220.84 173.69,220.46 173.16,220.07C169.51,223.29 169.56,223.78 173.86,226.45L176.71,223.07ZM221.08,220.49L217.62,224.2L221.11,227C224.08,223.06 224.07,222.56 221.1,220.49L221.08,220.49ZM201.41,147.55C198.58,143.14 197.41,143.04 195.41,146.82L198.86,150.07L201.41,147.55ZM212.35,237.13L208.86,234.28L206,237.75C208.42,240.47 208.53,240.46 212.37,237.13L212.35,237.13ZM125.72,225.44L128.62,221.84L124.98,218.84C123.98,220.07 123.16,221.09 122.19,222.31L125.72,225.44ZM196.66,142.53C195.66,141.6 194.59,140.65 193.37,139.53L190.68,142.59C193.9,146.32 194.58,146.3 196.68,142.53L196.66,142.53ZM199.66,242.96C196.44,239.31 195.77,239.37 193.5,243.4C195.23,245.33 197.4,245.21 199.64,243L199.66,242.96ZM115.66,210.55C112.88,212.72 113.13,213.9 116.44,215.92L119.14,213.51L115.66,210.55ZM132.27,229.65C135.92,232.85 136.41,232.86 137.79,230.1L134.5,226.86L132.27,229.65ZM184.27,137.21L186.84,134.89C183.04,131.63 182.72,131.62 181.14,134.32L184.27,137.21ZM200.2,150.58L203.53,153.99C205.98,151.66 205.91,151.39 202.23,148.27L200.2,150.58ZM100.44,181.18L99.64,181.52L100.53,187.4L103.69,184.29L100.44,181.18ZM155.84,123.88L155.47,123.22L149.92,123.22L149.69,123.95L152.85,126.84L155.84,123.88ZM103.38,175.61L99.38,172.34L99.44,178.74L100.21,178.97L103.38,175.61ZM173.67,245.38L173.8,244.38L170.5,241.25C169.5,242.52 168.8,243.46 167.72,244.86L173.67,245.38ZM147.71,123.27L141.07,124.27C144.48,128.13 145.09,128.05 147.71,123.27ZM222.61,181.27C219.01,184.35 219.22,185.27 223.99,187.27C223.5,185.15 223.1,183.39 222.61,181.27ZM217.23,169.05C213.92,171.85 214.01,172.26 218.12,174.78C220.18,172.51 217.59,171.13 217.23,169.05ZM112.79,141.82L114.45,143.09L117.53,139.87C115.64,138 115,138.24 112.79,141.82ZM154.53,241.08C156.34,241.68 157.38,242.08 158.46,242.36C159.052,242.372 159.641,242.277 160.2,242.08C160.092,241.526 159.882,240.997 159.58,240.52C158.76,239.772 157.895,239.074 156.99,238.43L154.53,241.08ZM110.66,147.58L113.76,144.33L111.86,142.77C108.7,145.85 108.62,146.22 110.66,147.58ZM110.8,206.78C109.5,208.17 109.8,208.98 112.44,211.35C114.66,209.57 114.5,209.1 110.8,206.78ZM137,233C138.19,233.765 139.449,234.418 140.76,234.95C141.17,235.07 141.84,234.3 142.38,233.95C141.517,233.015 140.543,232.189 139.48,231.49C139.09,231.28 138.11,232.27 137,233ZM204.21,155.15C205.53,156.04 206.37,156.69 207.29,157.15C207.772,157.282 208.274,157.323 208.77,157.27C208.77,156.76 208.98,156.13 208.77,155.78C208.12,154.78 207.29,153.95 206.24,152.68C205.53,153.5 205.09,154 204.19,155.14L204.21,155.15ZM179.51,133.93L181.43,131.56L176.9,129.82C177.67,131.07 178.47,132.33 179.49,133.92L179.51,133.93ZM222.24,219.44L223.61,221.09L224.32,220.74L225.64,216.16L225.19,215.99L222.24,219.44ZM117.06,137L117.17,137.86C117.82,137.92 118.75,138.28 119.05,137.99C119.945,137.002 120.76,135.945 121.49,134.83C120.97,134.74 120.27,134.38 119.96,134.59C118.946,135.334 117.977,136.139 117.06,137ZM106.19,152.37C109.51,150.16 109.94,149.04 108.06,147.66C107.27,149.08 105.63,150.15 106.19,152.37ZM202,242.48L202.21,242.95L207.36,240.6L205.11,238.54L202,242.48ZM100.41,165.32L99.59,170L100.06,170.2L102.61,167.07L100.41,165.32ZM133.84,126.43L136.07,128.21L138.93,124.79L133.84,126.43ZM163.12,124.33L159.05,123.62L158.94,124.28C160.19,124.59 160.94,127.55 163.12,124.33Z" style="fill:white;fill-rule:nonzero;"/>
                </g>
                <g transform="matrix(1.333333,0,0,1.333333,0,0)">
                    <path d="M367.93,155.64C368.3,157.51 368.67,159.38 369.06,161.24C371.66,173.69 369.14,185.16 362.44,195.81C355.916,205.983 347.377,214.713 337.35,221.46C327.53,228.25 317.23,234.23 306.79,240.01C296.95,245.45 287.25,251.15 277.58,256.9C275.486,258.348 273.543,260.003 271.78,261.84C271.417,262.251 270.848,262.419 270.32,262.27C265.86,261.162 261.687,259.117 258.08,256.27C257.859,256.061 257.745,255.763 257.77,255.46C259.22,250.34 258.62,245.17 258.08,240.03C256.8,227.88 255.37,215.74 254.08,203.58C253.08,193.47 252.23,183.33 252.7,173.16C253.24,161.66 255.61,150.55 260.91,140.21C265.356,131.213 272.692,123.961 281.74,119.62L287.74,116.74L293.95,114.74C294.203,114.765 294.457,114.765 294.71,114.74C298.733,113.789 302.876,113.452 307,113.74C317,114.44 326.31,117.74 335.3,121.88C341.072,124.707 346.496,128.197 351.46,132.28C356.675,136.176 361.015,141.123 364.2,146.8C365.2,148.58 365.94,150.44 366.8,152.26L367.93,155.64ZM271.38,226C270.113,226.036 269.026,226.941 268.76,228.18C268.629,228.61 268.455,229.025 268.24,229.42C266.515,232.803 265.494,236.501 265.24,240.29C265.09,244.08 265.48,247.7 267.78,250.9C268.11,251.439 268.721,251.742 269.35,251.68C273.84,251.59 277.35,249.34 280.59,246.6C283.83,243.86 285.95,239.97 288.17,236.32C288.278,236.092 288.296,235.831 288.22,235.59C287.728,234.02 287.089,232.5 286.31,231.05C283.18,226.15 277.35,224.13 271.38,226ZM295.09,164.87C295.645,166.462 297.399,167.328 299,166.8C300.614,166.214 301.5,164.443 301,162.8C300.408,161.231 298.665,160.393 297.07,160.91C295.456,161.496 294.578,163.272 295.09,164.91L295.09,164.87ZM323.35,185.48C322.819,183.889 321.096,182.996 319.49,183.48C317.835,184.026 316.893,185.804 317.37,187.48C317.909,189.074 319.639,189.965 321.25,189.48C322.888,188.939 323.82,187.179 323.35,185.52L323.35,185.48ZM319.56,149.04C319.034,147.441 317.299,146.544 315.69,147.04C314.064,147.59 313.136,149.334 313.59,150.99C314.125,152.582 315.852,153.475 317.46,152.99C319.067,152.441 319.99,150.723 319.56,149.08L319.56,149.04ZM304.83,199.31C304.299,197.724 302.583,196.832 300.98,197.31C299.331,197.865 298.386,199.63 298.84,201.31C299.246,202.602 300.452,203.487 301.807,203.487C302.159,203.487 302.508,203.427 302.84,203.31C304.459,202.754 305.35,200.981 304.83,199.35L304.83,199.31ZM341.83,171.63C341.439,170.383 340.275,169.528 338.968,169.528C338.617,169.528 338.269,169.59 337.94,169.71C336.302,170.272 335.387,172.05 335.88,173.71C336.461,175.291 338.204,176.147 339.81,175.64C341.439,175.087 342.349,173.317 341.85,171.67L341.83,171.63ZM332.83,167.15C332.445,165.893 331.276,165.028 329.961,165.028C329.62,165.028 329.282,165.086 328.96,165.2C327.318,165.758 326.394,167.535 326.88,169.2C327.335,170.429 328.514,171.25 329.825,171.25C331.547,171.25 332.965,169.833 332.965,168.11C332.965,167.802 332.919,167.495 332.83,167.2L332.83,167.15ZM308.35,148.48C310.008,148.025 311.003,146.292 310.56,144.63C310.084,143.019 308.377,142.075 306.76,142.53C305.068,143.033 304.086,144.835 304.58,146.53C304.964,147.789 306.133,148.655 307.45,148.655C307.752,148.655 308.052,148.61 308.34,148.52L308.35,148.48ZM319.95,160.74C318.311,161.259 317.381,163.025 317.88,164.67C318.299,165.911 319.47,166.751 320.779,166.751C321.113,166.751 321.444,166.697 321.76,166.59C323.063,166.182 323.955,164.968 323.955,163.603C323.955,163.283 323.906,162.965 323.81,162.66C323.405,161.434 322.252,160.601 320.961,160.601C320.613,160.601 320.267,160.661 319.94,160.78L319.95,160.74ZM312.29,184.86C313.581,184.449 314.464,183.242 314.464,181.887C314.464,181.537 314.405,181.19 314.29,180.86C313.867,179.633 312.705,178.805 311.407,178.805C311.061,178.805 310.717,178.864 310.39,178.98C308.769,179.558 307.88,181.336 308.39,182.98C308.932,184.573 310.686,185.439 312.28,184.9L312.29,184.86ZM306.15,165.41C304.867,165.822 303.992,167.023 303.992,168.371C303.992,168.704 304.045,169.034 304.15,169.35C304.572,170.585 305.74,171.42 307.045,171.42C307.387,171.42 307.727,171.362 308.05,171.25C309.678,170.68 310.571,168.895 310.05,167.25C309.628,166.053 308.49,165.248 307.221,165.248C306.851,165.248 306.485,165.317 306.14,165.45L306.15,165.41ZM319,206.33C317.375,206.904 316.484,208.686 317,210.33C317.398,211.567 318.556,212.41 319.856,212.41C320.205,212.41 320.552,212.349 320.88,212.23C322.514,211.694 323.432,209.925 322.93,208.28C322.379,206.674 320.612,205.797 319,206.33ZM324.8,151.6C323.149,152.085 322.183,153.834 322.65,155.49C323.046,156.76 324.231,157.632 325.562,157.632C325.873,157.632 326.183,157.584 326.48,157.49C328.155,156.97 329.11,155.168 328.6,153.49C328.195,152.264 327.042,151.431 325.752,151.431C325.414,151.431 325.079,151.488 324.76,151.6L324.8,151.6ZM340.35,152.8C341.635,152.401 342.516,151.204 342.516,149.859C342.516,149.519 342.46,149.181 342.35,148.86C341.949,147.628 340.793,146.789 339.497,146.789C339.147,146.789 338.799,146.85 338.47,146.97C337.182,147.398 336.307,148.611 336.307,149.969C336.307,150.309 336.362,150.647 336.47,150.97C336.891,152.168 338.03,152.975 339.3,152.975C339.644,152.975 339.986,152.916 340.31,152.8L340.35,152.8ZM269.65,170.24C268.009,170.75 267.072,172.515 267.57,174.16C267.958,175.413 269.124,176.273 270.436,176.273C270.778,176.273 271.118,176.215 271.44,176.1C273.073,175.572 274.005,173.819 273.53,172.17C273.145,170.913 271.976,170.05 270.662,170.05C270.303,170.05 269.946,170.114 269.61,170.24L269.65,170.24ZM344.58,166.5C346.208,165.955 347.132,164.201 346.66,162.55C346.129,160.949 344.392,160.054 342.78,160.55C341.484,160.981 340.604,162.201 340.604,163.567C340.604,163.922 340.664,164.275 340.78,164.61C341.333,166.126 342.993,166.961 344.54,166.5L344.58,166.5ZM286.79,190.24C286.356,189.025 285.198,188.209 283.908,188.209C283.554,188.209 283.203,188.27 282.87,188.39C281.245,188.964 280.354,190.746 280.87,192.39C281.452,193.917 283.134,194.746 284.7,194.28C286.014,193.852 286.909,192.619 286.909,191.237C286.909,190.898 286.856,190.562 286.75,190.24L286.79,190.24ZM298.56,189.57C300.192,189.005 301.087,187.215 300.56,185.57C299.994,183.985 298.228,183.143 296.64,183.7C295.35,184.12 294.472,185.33 294.472,186.686C294.472,187.031 294.529,187.373 294.64,187.7C295.047,188.923 296.198,189.754 297.487,189.754C297.839,189.754 298.189,189.691 298.52,189.57L298.56,189.57ZM347,174.25C345.357,174.761 344.408,176.515 344.88,178.17C345.397,179.777 347.14,180.677 348.75,180.17C350.391,179.65 351.333,177.895 350.86,176.24C350.486,174.966 349.309,174.085 347.981,174.085C347.647,174.085 347.316,174.141 347,174.25ZM336.58,203.68C336.08,202.084 334.356,201.181 332.76,201.68C331.128,202.213 330.182,203.95 330.62,205.61C330.992,206.887 332.17,207.771 333.5,207.771C333.83,207.771 334.158,207.717 334.47,207.61C335.821,207.257 336.77,206.027 336.77,204.63C336.77,204.308 336.72,203.987 336.62,203.68L336.58,203.68ZM289.85,162.29C291.491,161.787 292.444,160.042 291.98,158.39C291.574,157.116 290.383,156.245 289.045,156.245C288.728,156.245 288.412,156.294 288.11,156.39C286.473,156.914 285.532,158.666 286,160.32C286.377,161.59 287.552,162.467 288.876,162.467C289.222,162.467 289.565,162.407 289.89,162.29L289.85,162.29ZM297.63,138.13C295.985,138.629 295.027,140.375 295.49,142.03C296.007,143.632 297.743,144.531 299.35,144.03C300.992,143.523 301.941,141.772 301.47,140.12C301.09,138.855 299.917,137.983 298.597,137.983C298.282,137.983 297.969,138.033 297.67,138.13L297.63,138.13ZM281.77,146.73C282.171,148.005 283.362,148.878 284.698,148.878C285.018,148.878 285.336,148.828 285.64,148.73C287.272,148.165 288.167,146.375 287.64,144.73C287.245,143.488 286.084,142.638 284.781,142.638C284.44,142.638 284.101,142.696 283.78,142.81C282.513,143.228 281.652,144.42 281.652,145.754C281.652,146.085 281.705,146.415 281.81,146.73L281.77,146.73ZM279.2,151.91C277.542,152.357 276.533,154.074 276.95,155.74C277.417,157.359 279.127,158.313 280.75,157.86C282.409,157.395 283.413,155.673 283,154C282.647,152.696 281.455,151.783 280.104,151.783C279.811,151.783 279.52,151.826 279.24,151.91L279.2,151.91ZM280.41,180.58C282.065,180.04 282.988,178.239 282.46,176.58C281.901,174.992 280.149,174.131 278.55,174.66C276.918,175.225 276.023,177.015 276.55,178.66C276.94,179.909 278.105,180.765 279.413,180.765C279.767,180.765 280.118,180.702 280.45,180.58L280.41,180.58ZM325.82,180.34C327.517,179.876 328.533,178.098 328.07,176.4C327.586,174.832 325.923,173.918 324.34,174.35C322.679,174.788 321.665,176.504 322.08,178.17C322.404,179.513 323.615,180.467 324.996,180.467C325.289,180.467 325.58,180.424 325.86,180.34L325.82,180.34ZM296.23,172C295.824,170.776 294.672,169.945 293.383,169.945C293.059,169.945 292.737,169.997 292.43,170.1C290.767,170.632 289.83,172.433 290.35,174.1C290.908,175.643 292.603,176.486 294.17,176C295.484,175.58 296.382,174.351 296.382,172.971C296.382,172.641 296.331,172.314 296.23,172ZM285.57,183.16C286.096,184.75 287.817,185.643 289.42,185.16C291.036,184.594 291.969,182.873 291.56,181.21C291.154,179.936 289.963,179.065 288.625,179.065C288.308,179.065 287.992,179.114 287.69,179.21C286.046,179.708 285.094,181.46 285.57,183.11L285.57,183.16ZM277.73,185.86C277.324,184.586 276.133,183.715 274.795,183.715C274.478,183.715 274.162,183.764 273.86,183.86C272.232,184.435 271.319,186.199 271.79,187.86C272.328,189.457 274.078,190.335 275.68,189.81C276.99,189.391 277.885,188.166 277.885,186.79C277.885,186.457 277.833,186.127 277.73,185.81L277.73,185.86ZM335.55,162C337.202,161.455 338.122,159.659 337.6,158C337.028,156.418 335.278,155.565 333.68,156.09C332.041,156.647 331.142,158.445 331.68,160.09C332.076,161.329 333.236,162.176 334.537,162.176C334.883,162.176 335.225,162.116 335.55,162ZM295.8,194.81C295.399,193.535 294.208,192.662 292.872,192.662C292.552,192.662 292.234,192.712 291.93,192.81C290.298,193.347 289.363,195.094 289.82,196.75C290.337,198.362 292.087,199.264 293.7,198.75C295.345,198.23 296.286,196.465 295.8,194.81ZM314.8,158.22C314.428,156.943 313.25,156.059 311.92,156.059C311.59,156.059 311.262,156.113 310.95,156.22C309.319,156.761 308.4,158.523 308.89,160.17C309.412,161.773 311.151,162.672 312.76,162.17C314.375,161.613 315.27,159.853 314.77,158.22L314.8,158.22ZM289,207.87C290.603,207.348 291.502,205.609 291,204C290.627,202.725 289.449,201.842 288.121,201.842C287.794,201.842 287.469,201.895 287.16,202C285.523,202.514 284.595,204.28 285.1,205.92C285.482,207.182 286.653,208.052 287.972,208.052C288.322,208.052 288.67,207.99 289,207.87ZM300.11,208.52C299.756,207.218 298.565,206.307 297.215,206.307C296.904,206.307 296.596,206.355 296.3,206.45C294.66,206.962 293.704,208.701 294.15,210.36C294.537,211.657 295.738,212.551 297.092,212.551C297.393,212.551 297.692,212.507 297.98,212.42C299.612,211.909 300.549,210.162 300.07,208.52L300.11,208.52ZM310.11,201.81C308.715,202.184 307.738,203.457 307.738,204.901C307.738,205.209 307.783,205.515 307.87,205.81C308.404,207.35 310.055,208.228 311.63,207.81C313.323,207.3 314.327,205.523 313.89,203.81C313.348,202.268 311.69,201.39 310.11,201.81ZM307,216.9C308.645,216.398 309.593,214.64 309.11,212.99C308.631,211.423 306.973,210.505 305.39,210.93C304.001,211.321 303.035,212.597 303.035,214.039C303.035,214.341 303.077,214.64 303.16,214.93C303.677,216.521 305.407,217.408 307,216.9ZM324.29,139.9C323.917,138.625 322.739,137.742 321.411,137.742C321.084,137.742 320.759,137.795 320.45,137.9C318.832,138.452 317.938,140.219 318.45,141.85C318.824,143.124 320.001,144.005 321.329,144.005C321.652,144.005 321.973,143.953 322.28,143.85C323.887,143.298 324.773,141.54 324.26,139.92L324.29,139.9ZM312.7,196.6C313.073,197.875 314.251,198.758 315.579,198.758C315.906,198.758 316.231,198.705 316.54,198.6C318.171,198.072 319.094,196.312 318.6,194.67C318.228,193.393 317.05,192.509 315.72,192.509C315.39,192.509 315.062,192.563 314.75,192.67C313.097,193.184 312.159,194.966 312.67,196.62L312.7,196.6ZM328.52,188.06C326.879,188.57 325.942,190.335 326.44,191.98C326.986,193.569 328.734,194.436 330.33,193.91C331.989,193.374 332.917,191.572 332.39,189.91C331.975,188.702 330.831,187.885 329.553,187.885C329.19,187.885 328.83,187.951 328.49,188.08L328.52,188.06ZM278.18,197.52C276.898,197.913 276.017,199.105 276.017,200.445C276.017,200.78 276.072,201.113 276.18,201.43C276.57,202.68 277.735,203.537 279.044,203.537C279.38,203.537 279.713,203.48 280.03,203.37C281.65,202.826 282.547,201.059 282.03,199.43C281.629,198.198 280.473,197.359 279.177,197.359C278.827,197.359 278.479,197.42 278.15,197.54L278.18,197.52ZM317,175.77C318.64,175.251 319.576,173.49 319.09,171.84C318.544,170.251 316.796,169.384 315.2,169.91C313.565,170.433 312.643,172.2 313.15,173.84C313.543,175.085 314.705,175.938 316.011,175.938C316.348,175.938 316.682,175.881 317,175.77ZM290.88,151.27C291.404,152.816 293.098,153.665 294.65,153.16C295.965,152.773 296.875,151.557 296.875,150.186C296.875,149.837 296.816,149.49 296.7,149.16C296.289,147.944 295.141,147.121 293.858,147.121C293.5,147.121 293.145,147.185 292.81,147.31C291.549,147.724 290.691,148.909 290.691,150.236C290.691,150.588 290.752,150.938 290.87,151.27L290.88,151.27ZM301.42,174.57C299.764,175.111 298.835,176.906 299.35,178.57C299.9,180.16 301.654,181.024 303.25,180.49C304.863,179.938 305.756,178.178 305.25,176.55C304.871,175.284 303.698,174.41 302.376,174.41C302.047,174.41 301.721,174.464 301.41,174.57L301.42,174.57ZM287.26,167.57C286.901,166.275 285.713,165.372 284.369,165.372C284.064,165.372 283.761,165.419 283.47,165.51C281.817,165.986 280.844,167.734 281.31,169.39C281.758,170.962 283.414,171.893 284.99,171.46C286.38,171.132 287.37,169.881 287.37,168.453C287.37,168.164 287.33,167.877 287.25,167.6L287.26,167.57ZM346.14,185.4C345.78,184.106 344.593,183.205 343.25,183.205C342.948,183.205 342.648,183.25 342.36,183.34C341.016,183.716 340.08,184.949 340.08,186.345C340.08,186.634 340.121,186.922 340.2,187.2C340.64,188.775 342.291,189.715 343.87,189.29C345.26,188.962 346.25,187.711 346.25,186.283C346.25,185.994 346.21,185.707 346.13,185.43L346.14,185.4ZM339.34,198.4C340.654,197.98 341.552,196.751 341.552,195.371C341.552,195.041 341.501,194.714 341.4,194.4C340.841,192.812 339.086,191.955 337.49,192.49C335.865,193.064 334.974,194.846 335.49,196.49C335.889,197.725 337.047,198.567 338.344,198.567C338.68,198.567 339.013,198.51 339.33,198.4L339.34,198.4ZM272.34,165.02C272.73,166.27 273.895,167.127 275.204,167.127C275.54,167.127 275.873,167.07 276.19,166.96C277.814,166.421 278.713,164.649 278.19,163.02C277.795,161.778 276.634,160.928 275.331,160.928C274.99,160.928 274.651,160.986 274.33,161.1C273.045,161.491 272.161,162.684 272.161,164.027C272.161,164.358 272.215,164.686 272.32,165L272.34,165.02ZM309.59,190.16C309.077,188.555 307.337,187.653 305.73,188.16C304.095,188.683 303.167,190.445 303.66,192.09C304.033,193.365 305.211,194.248 306.539,194.248C306.866,194.248 307.191,194.195 307.5,194.09C309.139,193.571 310.069,191.805 309.57,190.16L309.59,190.16ZM323.8,197.16C322.475,197.549 321.559,198.773 321.559,200.154C321.559,200.457 321.603,200.759 321.69,201.05C322.064,202.324 323.241,203.205 324.569,203.205C324.892,203.205 325.213,203.153 325.52,203.05C326.838,202.66 327.748,201.442 327.748,200.068C327.748,199.757 327.702,199.447 327.61,199.15C327.221,197.899 326.055,197.04 324.745,197.04C324.417,197.04 324.091,197.094 323.78,197.2L323.8,197.16ZM313.2,139.3C314.515,138.908 315.422,137.691 315.422,136.319C315.422,136.004 315.374,135.691 315.28,135.39C314.908,134.113 313.73,133.229 312.4,133.229C312.07,133.229 311.742,133.283 311.43,133.39C309.788,133.904 308.859,135.677 309.37,137.32C309.74,138.6 310.92,139.487 312.252,139.487C312.567,139.487 312.88,139.437 313.18,139.34L313.2,139.3ZM337.1,180.8C336.731,179.556 335.579,178.697 334.282,178.697C333.933,178.697 333.587,178.759 333.26,178.88C331.956,179.271 331.057,180.479 331.057,181.84C331.057,182.166 331.109,182.49 331.21,182.8C331.596,184.056 332.764,184.919 334.078,184.919C334.416,184.919 334.751,184.862 335.07,184.75C336.683,184.215 337.583,182.463 337.08,180.84L337.1,180.8ZM327.44,146.38C327.836,147.621 328.996,148.469 330.298,148.469C330.636,148.469 330.971,148.412 331.29,148.3C332.58,147.88 333.458,146.67 333.458,145.314C333.458,144.969 333.401,144.627 333.29,144.3C332.89,143.067 331.733,142.226 330.437,142.226C330.094,142.226 329.753,142.285 329.43,142.4C328.126,142.778 327.223,143.981 327.223,145.339C327.223,145.708 327.289,146.074 327.42,146.42L327.44,146.38ZM301.95,151.71C300.344,152.212 299.406,153.914 299.84,155.54C300.193,156.844 301.385,157.756 302.736,157.756C303.039,157.756 303.341,157.71 303.63,157.62C304.973,157.257 305.913,156.029 305.913,154.637C305.913,154.333 305.868,154.031 305.78,153.74C305.405,152.468 304.229,151.588 302.902,151.588C302.572,151.588 302.243,151.643 301.93,151.75L301.95,151.71Z" style="fill:white;fill-rule:nonzero;"/>
                </g>
                <g transform="matrix(1.333333,0,0,1.333333,0,0)">
                    <path d="M257.46,256.62C261.293,259.638 265.725,261.806 270.46,262.98C268.98,265.94 267.493,268.903 266,271.87C260.42,282.85 254.833,293.827 249.24,304.8C248.111,307.004 247.312,309.363 246.87,311.8C246.641,312.978 246.306,314.132 245.87,315.25C245.369,316.861 243.776,317.896 242.1,317.7C237.153,317.491 232.522,315.188 229.37,311.37C228.192,310.147 228.098,308.222 229.15,306.89C229.659,306.059 230.263,305.291 230.95,304.6C233.297,302.211 235.233,299.45 236.68,296.43C243.26,283.73 249.86,271.033 256.48,258.34C256.76,257.79 257.1,257.25 257.46,256.62Z" style="fill:white;fill-rule:nonzero;"/>
                </g>
                <g transform="matrix(1.333333,0,0,1.333333,0,0)">
                    <path d="M205.06,343.51C203.719,343.512 202.386,343.302 201.11,342.89C197.012,341.374 193.762,338.16 192.2,334.08C191.41,332.02 192.45,329.47 194.98,327.27C198.71,324.02 205.41,321.99 211.28,325.27C217.15,328.55 224.38,317.35 227.23,312.42C228.49,310.24 229.23,308.65 229.23,308.63L231.04,309.5C231.04,309.5 230.78,310.03 230.36,310.84C230.23,312.6 228.56,331.55 215.53,339.96C211.84,342.31 208.33,343.51 205.06,343.51ZM204.85,325.58C201.714,325.61 198.686,326.744 196.3,328.78C194.48,330.36 193.61,332.16 194.07,333.37C195.412,336.889 198.204,339.667 201.73,340.99C205.46,342.21 209.73,341.28 214.47,338.23C223.04,332.7 226.4,321.87 227.67,315.53C223.52,322.16 216.72,330.53 210.32,326.97C208.643,326.054 206.761,325.575 204.85,325.58Z" style="fill:white;fill-rule:nonzero;"/>
                </g>
            </g>
        </g>
    </g>
</svg>
